<?xml version="1.0" encoding="UTF-8"?>
<svg width="1151px" height="213px" viewBox="0 0 1151 213" version="1.1" xmlns="http://www.w3.org/2000/svg" xmlns:xlink="http://www.w3.org/1999/xlink">
    <!-- Generator: Sketch 46.2 (44496) - http://www.bohemiancoding.com/sketch -->
    <title>Logo Black on White</title>
    <desc>Created with Sketch.</desc>
    <defs></defs>
    <g id="Page-1" stroke="none" stroke-width="1" fill="none" fill-rule="evenodd">
        <g id="Logo-Black-on-White" fill="#000000">
            <text id="SHAWNLJJ" font-family="PTMono-Bold, PT Mono" font-size="144" font-weight="bold">
                <tspan x="230" y="153">SHAWN</tspan>
                <tspan x="662" y="153">LJJ</tspan>
            </text>
            <g id="Diamonds-Left" transform="translate(0.000000, 42.000000)" fill-rule="nonzero">
                <g id="np_left_798296_000000">
                    <polygon id="Shape" points="50.0640116 132 0 66 50.0640116 0 58.4336283 8.51064938 14.8224013 66.0006877 58.4336283 123.490726"></polygon>
                    <polygon id="Shape" points="84.6336719 132 34.5663717 66 84.6336719 0 93 8.51064938 49.3912722 66.0006877 93 123.490726"></polygon>
                </g>
            </g>
            <g id="Diamonds-Right" transform="translate(1104.500000, 108.000000) scale(-1, 1) translate(-1104.500000, -108.000000) translate(1058.000000, 42.000000)" fill-rule="nonzero">
                <g id="np_left_798296_000000">
                    <polygon id="Shape" points="50.0640116 132 0 66 50.0640116 0 58.4336283 8.51064938 14.8224013 66.0006877 58.4336283 123.490726"></polygon>
                    <polygon id="Shape" points="84.6336719 132 34.5663717 66 84.6336719 0 93 8.51064938 49.3912722 66.0006877 93 123.490726"></polygon>
                </g>
            </g>
        </g>
    </g>
</svg>